<svg xmlns="http://www.w3.org/2000/svg" viewBox="0 0 699.07 405.92" width="699.07" height="405.92"
     role="img" aria-labelledby="title">
  <title id="title">SophionOS logo</title>
    <g id="symbol" fill="#FFFFFF" transform="translate(247.96 26.42) scale(0.79)">
    <path d="M115 17.11 A122.1 122.1 0 0 0 44.01 128 A122.1 122.1 0 0 0 115 238.89 L115 210.92 A98.83 98.83 0 0 1 70 128 A98.83 98.83 0 0 1 115 45.08 Z"/>
    <path d="M141 17.11 A122.1 122.1 0 0 1 211.99 128 A122.1 122.1 0 0 1 141 238.89 L141 210.92 A98.83 98.83 0 0 0 186 128 A98.83 98.83 0 0 0 141 45.08 Z"/>
  </g>
  <g id="wordmark" fill="#FFFFFF" transform="translate(35.73 344)">
    <path d="M37.1 2.08Q26.52 2.08 19.21 -1.32Q11.89 -4.71 8.08 -10.66Q4.27 -16.6 4.27 -24.22H19.51Q19.51 -20.99 21.26 -18Q23.01 -15.01 26.88 -13.15Q30.74 -11.29 37.1 -11.29Q42.85 -11.29 46.66 -12.9Q50.47 -14.52 52.36 -17.23Q54.25 -19.95 54.25 -23.34Q54.25 -27.56 50.63 -30.14Q47.01 -32.71 39.4 -33.37L32.38 -33.97Q20.88 -34.96 14.03 -41.15Q7.18 -47.34 7.18 -57.53Q7.18 -65.15 10.79 -70.68Q14.41 -76.22 20.93 -79.26Q27.45 -82.3 36.22 -82.3Q45.32 -82.3 51.92 -79.12Q58.52 -75.95 62.11 -70.19Q65.7 -64.44 65.7 -56.66H50.47Q50.47 -59.89 48.9 -62.68Q47.34 -65.48 44.19 -67.21Q41.04 -68.93 36.22 -68.93Q31.62 -68.93 28.55 -67.37Q25.48 -65.81 23.95 -63.21Q22.41 -60.6 22.41 -57.53Q22.41 -53.81 25.15 -51.01Q27.89 -48.22 33.81 -47.73L40.82 -47.12Q49.42 -46.41 55.86 -43.45Q62.3 -40.49 65.89 -35.48Q69.48 -30.47 69.48 -23.34Q69.48 -15.78 65.51 -10.03Q61.53 -4.27 54.27 -1.1Q47.01 2.08 37.1 2.08Z M108.88 2.08Q101.04 2.08 95.01 -0.44Q88.99 -2.96 84.82 -7.26Q80.66 -11.56 78.52 -17.04Q76.38 -22.52 76.38 -28.49V-30.79Q76.38 -36.88 78.6 -42.44Q80.82 -48 85.04 -52.3Q89.26 -56.6 95.29 -59.1Q101.32 -61.59 108.88 -61.59Q116.49 -61.59 122.49 -59.1Q128.49 -56.6 132.71 -52.3Q136.93 -48 139.15 -42.44Q141.37 -36.88 141.37 -30.79V-28.49Q141.37 -22.52 139.23 -17.04Q137.1 -11.56 132.93 -7.26Q128.77 -2.96 122.74 -0.44Q116.71 2.08 108.88 2.08ZM108.88 -10.96Q114.47 -10.96 118.3 -13.4Q122.14 -15.84 124.14 -20.08Q126.14 -24.33 126.14 -29.64Q126.14 -35.12 124.08 -39.37Q122.03 -43.62 118.16 -46.08Q114.3 -48.55 108.88 -48.55Q103.51 -48.55 99.62 -46.08Q95.73 -43.62 93.67 -39.37Q91.62 -35.12 91.62 -29.64Q91.62 -24.33 93.62 -20.08Q95.62 -15.84 99.48 -13.4Q103.34 -10.96 108.88 -10.96Z M152.55 21.92V-59.51H164.6V-33.81L162.74 -33.92Q163.18 -43.07 166.52 -49.18Q169.86 -55.29 175.45 -58.33Q181.04 -61.37 187.95 -61.37Q194.25 -61.37 199.37 -59.04Q204.49 -56.71 208.16 -52.58Q211.84 -48.44 213.78 -42.9Q215.73 -37.37 215.73 -30.96V-28.66Q215.73 -22.25 213.81 -16.68Q211.89 -11.12 208.25 -6.93Q204.6 -2.74 199.45 -0.38Q194.3 1.97 187.89 1.97Q181.26 1.97 175.73 -0.79Q170.19 -3.56 166.77 -9.45Q163.34 -15.34 162.96 -24.6L167.78 -17.26V21.92ZM184.05 -10.85Q188.99 -10.85 192.68 -13.26Q196.38 -15.67 198.44 -19.97Q200.49 -24.27 200.49 -29.81Q200.49 -35.45 198.44 -39.64Q196.38 -43.84 192.71 -46.19Q189.04 -48.55 184.05 -48.55Q179.62 -48.55 175.81 -46.55Q172 -44.55 169.67 -40.74Q167.34 -36.93 167.34 -31.56V-27.18Q167.34 -22.03 169.75 -18.38Q172.16 -14.74 176 -12.79Q179.84 -10.85 184.05 -10.85Z M226.96 0V-80H242.19V-33.32H239.56Q239.56 -42.25 241.84 -48.52Q244.11 -54.79 248.68 -58.08Q253.26 -61.37 260.22 -61.37H260.88Q271.07 -61.37 276.36 -54.33Q281.64 -47.29 281.64 -33.92V0H266.41V-35.4Q266.41 -41.04 263.15 -44.36Q259.89 -47.67 254.63 -47.67Q249.04 -47.67 245.62 -44Q242.19 -40.33 242.19 -34.36V0Z M298.63 0V-59.51H313.86V0ZM290.3 -48.11V-59.51H313.86V-48.11ZM304.19 -66.63Q299.73 -66.63 297.59 -68.96Q295.45 -71.29 295.45 -74.9Q295.45 -78.52 297.6 -80.85Q299.74 -83.18 304.16 -83.18Q308.66 -83.18 310.77 -80.85Q312.88 -78.52 312.88 -74.9Q312.88 -71.29 310.77 -68.96Q308.66 -66.63 304.19 -66.63Z M357.75 2.08Q349.92 2.08 343.89 -0.44Q337.86 -2.96 333.7 -7.26Q329.53 -11.56 327.4 -17.04Q325.26 -22.52 325.26 -28.49V-30.79Q325.26 -36.88 327.48 -42.44Q329.7 -48 333.92 -52.3Q338.14 -56.6 344.16 -59.1Q350.19 -61.59 357.75 -61.59Q365.37 -61.59 371.37 -59.1Q377.37 -56.6 381.59 -52.3Q385.81 -48 388.03 -42.44Q390.25 -36.88 390.25 -30.79V-28.49Q390.25 -22.52 388.11 -17.04Q385.97 -11.56 381.81 -7.26Q377.64 -2.96 371.62 -0.44Q365.59 2.08 357.75 2.08ZM357.75 -10.96Q363.34 -10.96 367.18 -13.4Q371.01 -15.84 373.01 -20.08Q375.01 -24.33 375.01 -29.64Q375.01 -35.12 372.96 -39.37Q370.9 -43.62 367.04 -46.08Q363.18 -48.55 357.75 -48.55Q352.38 -48.55 348.49 -46.08Q344.6 -43.62 342.55 -39.37Q340.49 -35.12 340.49 -29.64Q340.49 -24.33 342.49 -20.08Q344.49 -15.84 348.36 -13.4Q352.22 -10.96 357.75 -10.96Z M401.42 0V-59.51H413.48V-33.97H412.38Q412.38 -43.01 414.77 -49.1Q417.15 -55.18 421.95 -58.27Q426.74 -61.37 433.81 -61.37H434.47Q445.15 -61.37 450.63 -54.49Q456.11 -47.62 456.11 -34.03V0H440.88V-35.4Q440.88 -40.88 437.73 -44.27Q434.58 -47.67 429.1 -47.67Q423.51 -47.67 420.08 -44.19Q416.66 -40.71 416.66 -34.96V0Z M508.99 2.08Q498.14 2.08 490.19 -1.73Q482.25 -5.53 477.04 -11.75Q471.84 -17.97 469.29 -25.15Q466.74 -32.33 466.74 -39.01V-41.42Q466.74 -48.77 469.37 -56.03Q472 -63.29 477.32 -69.23Q482.63 -75.18 490.52 -78.74Q498.41 -82.3 508.99 -82.3Q519.51 -82.3 527.4 -78.74Q535.29 -75.18 540.6 -69.23Q545.92 -63.29 548.58 -56.03Q551.23 -48.77 551.23 -41.42V-39.01Q551.23 -32.33 548.66 -25.15Q546.08 -17.97 540.88 -11.75Q535.67 -5.53 527.73 -1.73Q519.78 2.08 508.99 2.08ZM508.99 -12.38Q515.12 -12.38 520.03 -14.58Q524.93 -16.77 528.38 -20.63Q531.84 -24.49 533.64 -29.48Q535.45 -34.47 535.45 -40.11Q535.45 -46.08 533.62 -51.12Q531.78 -56.16 528.33 -59.92Q524.88 -63.67 519.97 -65.75Q515.07 -67.84 508.99 -67.84Q502.85 -67.84 497.95 -65.75Q493.04 -63.67 489.59 -59.92Q486.14 -56.16 484.33 -51.12Q482.52 -46.08 482.52 -40.11Q482.52 -34.47 484.33 -29.48Q486.14 -24.49 489.59 -20.63Q493.04 -16.77 497.95 -14.58Q502.85 -12.38 508.99 -12.38Z M590.96 2.08Q580.38 2.08 573.07 -1.32Q565.75 -4.71 561.95 -10.66Q558.14 -16.6 558.14 -24.22H573.37Q573.37 -20.99 575.12 -18Q576.88 -15.01 580.74 -13.15Q584.6 -11.29 590.96 -11.29Q596.71 -11.29 600.52 -12.9Q604.33 -14.52 606.22 -17.23Q608.11 -19.95 608.11 -23.34Q608.11 -27.56 604.49 -30.14Q600.88 -32.71 593.26 -33.37L586.25 -33.97Q574.74 -34.96 567.89 -41.15Q561.04 -47.34 561.04 -57.53Q561.04 -65.15 564.66 -70.68Q568.27 -76.22 574.79 -79.26Q581.32 -82.3 590.08 -82.3Q599.18 -82.3 605.78 -79.12Q612.38 -75.95 615.97 -70.19Q619.56 -64.44 619.56 -56.66H604.33Q604.33 -59.89 602.77 -62.68Q601.21 -65.48 598.05 -67.21Q594.9 -68.93 590.08 -68.93Q585.48 -68.93 582.41 -67.37Q579.34 -65.81 577.81 -63.21Q576.27 -60.6 576.27 -57.53Q576.27 -53.81 579.01 -51.01Q581.75 -48.22 587.67 -47.73L594.68 -47.12Q603.29 -46.41 609.73 -43.45Q616.16 -40.49 619.75 -35.48Q623.34 -30.47 623.34 -23.34Q623.34 -15.78 619.37 -10.03Q615.4 -4.27 608.14 -1.1Q600.88 2.08 590.96 2.08Z"/>
  </g>
</svg>
